<svg class="main-svg" xmlns="http://www.w3.org/2000/svg" xmlns:xlink="http://www.w3.org/1999/xlink" width="700" height="500" style="" viewBox="0 0 700 500"><rect x="0" y="0" width="700" height="500" style="fill: rgb(255, 255, 255); fill-opacity: 1;"/><defs id="defs-861daf"><g class="clips"><clipPath id="clip861dafxyplot" class="plotclip"><rect width="555.5192319710036" height="362.16138998250216"/></clipPath><clipPath class="axesclip" id="clip861dafx"><rect x="90.96558242719661" y="0" width="555.5192319710036" height="500"/></clipPath><clipPath class="axesclip" id="clip861dafy"><rect x="0" y="63.19881889763781" width="700" height="362.16138998250216"/></clipPath><clipPath class="axesclip" id="clip861dafxy"><rect x="90.96558242719661" y="63.19881889763781" width="555.5192319710036" height="362.16138998250216"/></clipPath></g><g class="gradients"/></defs><g class="bglayer"/><g class="layer-below"><g class="imagelayer"/><g class="shapelayer"/></g><g class="cartesianlayer"><g class="subplot xy"><g class="layer-subplot"><g class="shapelayer"/><g class="imagelayer"/></g><g class="gridlayer"><g class="x"><path class="xgrid crisp" transform="translate(229.8455824271966,0)" d="M0,63.19881889763781v362.16138998250216" style="stroke: rgb(0, 0, 0); stroke-opacity: 0.1; stroke-width: 0.5px;"/><path class="xgrid crisp" transform="translate(368.7255824271966,0)" d="M0,63.19881889763781v362.16138998250216" style="stroke: rgb(0, 0, 0); stroke-opacity: 0.1; stroke-width: 0.5px;"/><path class="xgrid crisp" transform="translate(507.6055824271966,0)" d="M0,63.19881889763781v362.16138998250216" style="stroke: rgb(0, 0, 0); stroke-opacity: 0.1; stroke-width: 0.5px;"/></g><g class="y"><path class="ygrid crisp" transform="translate(0,382.0988188976378)" d="M90.96558242719661,0h555.5192319710036" style="stroke: rgb(0, 0, 0); stroke-opacity: 0.1; stroke-width: 0.5px;"/><path class="ygrid crisp" transform="translate(0,291.73881889763777)" d="M90.96558242719661,0h555.5192319710036" style="stroke: rgb(0, 0, 0); stroke-opacity: 0.1; stroke-width: 0.5px;"/><path class="ygrid crisp" transform="translate(0,201.3788188976378)" d="M90.96558242719661,0h555.5192319710036" style="stroke: rgb(0, 0, 0); stroke-opacity: 0.1; stroke-width: 0.5px;"/><path class="ygrid crisp" transform="translate(0,111.0288188976378)" d="M90.96558242719661,0h555.5192319710036" style="stroke: rgb(0, 0, 0); stroke-opacity: 0.1; stroke-width: 0.5px;"/></g></g><g class="zerolinelayer"/><path class="xlines-below"/><path class="ylines-below"/><g class="overlines-below"/><g class="xaxislayer-below"/><g class="yaxislayer-below"/><g class="overaxes-below"/><g class="plot" transform="translate(90.96558242719661,63.19881889763781)" clip-path="url('#clip861dafxyplot')"><g class="scatterlayer mlayer"><g class="trace scatter trace2ebe4b" style="stroke-miterlimit: 2; opacity: 1;"><g class="fills"/><g class="errorbars"/><g class="lines"><path class="js-line" d="M0,351.91L5.41,345.95L5.52,345.81L11.62,337.55L11.73,337.38L18.41,326.62L18.52,326.42L25.54,313.3L25.65,313.07L33.59,296.25L33.71,295.99L51.19,253.03L51.31,252.72L81.68,167.97L81.79,167.64L112.28,86.95L112.39,86.68L124.7,59.8L124.82,59.58L132.41,45.44L132.52,45.24L144.49,27.42L144.6,27.28L151.85,19.41L151.97,19.3L158.75,14.1L158.87,14.03L165.65,11.04L165.77,11.01L171.64,10.25L171.75,10.25L177.62,11.24L177.73,11.28L182.91,13.62L183.03,13.68L189.24,18.32L189.35,18.42L194.18,23.4L194.3,23.53L203.5,36.3L203.62,36.49L213.63,55.13L213.74,55.38L220.18,69.9L220.3,70.18L231,98.39L231.11,98.72L239.97,122.99L240.08,123.08L294.96,165.08L295.07,165.16L378.71,227L378.82,227.08L417.47,254.72L417.59,254.8L442.78,272.49L442.9,272.57L510.54,318.72L510.65,318.79L537.8,336.77L537.92,336.84L555.52,348.32" style="vector-effect: non-scaling-stroke; fill: none; stroke: rgb(0, 154, 250); stroke-opacity: 1; stroke-width: 1px; opacity: 1;"/></g><g class="points"/><g class="text"/></g><g class="trace scatter trace814d01" style="stroke-miterlimit: 2; opacity: 1;"><g class="fills"/><g class="errorbars"/><g class="lines"><path class="js-line" d="M0,320.31L5.98,323.8L6.1,323.85L11.73,325.5L11.85,325.51L16.91,325.66L17.03,325.64L22.43,324.43L22.55,324.39L29.22,321L29.33,320.92L35.55,315.97L35.66,315.86L42.22,308.84L42.33,308.71L49.12,299.64L49.24,299.47L60.4,280.96L60.51,280.75L67.99,266.16L68.1,265.92L77.77,244.91L77.88,244.65L86.85,223.43L86.97,223.15L137.24,97.05L137.36,96.79L147.59,74.5L147.71,74.26L157.49,55.53L157.6,55.33L169.8,36.27L169.91,36.12L180.15,24.4L180.26,24.3L187.51,18.63L187.63,18.56L194.18,15.44L194.3,15.4L200.51,14.28L200.63,14.27L206.95,15.01L207.07,15.04L212.48,17.2L212.59,17.26L219.15,21.8L219.26,21.9L225.13,27.75L225.24,27.88L230.88,35.07L231,35.23L241.24,50.14L241.35,50.25L262.52,70.67L262.63,70.78L358.34,158.38L358.46,158.48L417.7,209.04L417.82,209.13L439.1,226.65L439.22,226.74L477.98,257.79L478.1,257.88L536.42,302.59L536.54,302.67L555.52,316.72" style="vector-effect: non-scaling-stroke; fill: none; stroke: rgb(227, 111, 71); stroke-opacity: 1; stroke-width: 1px; opacity: 1;"/></g><g class="points"/><g class="text"/></g></g></g><g class="overplot"/><path class="xlines-above crisp" d="M89.96558242719661,425.86020888013996H646.4848143982002" style="fill: none; stroke-width: 1px; stroke: rgb(0, 0, 0); stroke-opacity: 1;"/><path class="ylines-above crisp" d="M90.46558242719661,63.19881889763781V425.36020888013996" style="fill: none; stroke-width: 1px; stroke: rgb(0, 0, 0); stroke-opacity: 1;"/><g class="overlines-above"/><g class="xaxislayer-above"><path class="xtick ticks crisp" d="M0,425.36020888013996v-5" transform="translate(229.8455824271966,0)" style="stroke: rgb(0, 0, 0); stroke-opacity: 1; stroke-width: 1px;"/><path class="xtick ticks crisp" d="M0,425.36020888013996v-5" transform="translate(368.7255824271966,0)" style="stroke: rgb(0, 0, 0); stroke-opacity: 1; stroke-width: 1px;"/><path class="xtick ticks crisp" d="M0,425.36020888013996v-5" transform="translate(507.6055824271966,0)" style="stroke: rgb(0, 0, 0); stroke-opacity: 1; stroke-width: 1px;"/><g class="xtick"><text text-anchor="middle" x="0" y="439.56020888013995" transform="translate(90.96558242719661,0)" style="font-family: sans-serif; font-size: 11px; fill: rgb(0, 0, 0); fill-opacity: 1; white-space: pre;">9.00</text></g><g class="xtick"><text text-anchor="middle" x="0" y="439.56020888013995" transform="translate(229.8455824271966,0)" style="font-family: sans-serif; font-size: 11px; fill: rgb(0, 0, 0); fill-opacity: 1; white-space: pre;">9.25</text></g><g class="xtick"><text text-anchor="middle" x="0" y="439.56020888013995" transform="translate(368.7255824271966,0)" style="font-family: sans-serif; font-size: 11px; fill: rgb(0, 0, 0); fill-opacity: 1; white-space: pre;">9.50</text></g><g class="xtick"><text text-anchor="middle" x="0" y="439.56020888013995" transform="translate(507.6055824271966,0)" style="font-family: sans-serif; font-size: 11px; fill: rgb(0, 0, 0); fill-opacity: 1; white-space: pre;">9.75</text></g><g class="xtick"><text text-anchor="middle" x="0" y="439.56020888013995" transform="translate(646.4855824271966,0)" style="font-family: sans-serif; font-size: 11px; fill: rgb(0, 0, 0); fill-opacity: 1; white-space: pre;">10.00</text></g></g><g class="yaxislayer-above"><path class="ytick ticks crisp" d="M90.96558242719661,0h5" transform="translate(0,382.0988188976378)" style="stroke: rgb(0, 0, 0); stroke-opacity: 1; stroke-width: 1px;"/><path class="ytick ticks crisp" d="M90.96558242719661,0h5" transform="translate(0,291.73881889763777)" style="stroke: rgb(0, 0, 0); stroke-opacity: 1; stroke-width: 1px;"/><path class="ytick ticks crisp" d="M90.96558242719661,0h5" transform="translate(0,201.3788188976378)" style="stroke: rgb(0, 0, 0); stroke-opacity: 1; stroke-width: 1px;"/><path class="ytick ticks crisp" d="M90.96558242719661,0h5" transform="translate(0,111.0288188976378)" style="stroke: rgb(0, 0, 0); stroke-opacity: 1; stroke-width: 1px;"/><g class="ytick"><text text-anchor="end" x="87.7655824271966" y="3.8499999999999996" transform="translate(0,382.0988188976378)" style="font-family: sans-serif; font-size: 11px; fill: rgb(0, 0, 0); fill-opacity: 1; white-space: pre;">90</text></g><g class="ytick"><text text-anchor="end" x="87.7655824271966" y="3.8499999999999996" transform="translate(0,291.73881889763777)" style="font-family: sans-serif; font-size: 11px; fill: rgb(0, 0, 0); fill-opacity: 1; white-space: pre;">100</text></g><g class="ytick"><text text-anchor="end" x="87.7655824271966" y="3.8499999999999996" transform="translate(0,201.3788188976378)" style="font-family: sans-serif; font-size: 11px; fill: rgb(0, 0, 0); fill-opacity: 1; white-space: pre;">110</text></g><g class="ytick"><text text-anchor="end" x="87.7655824271966" y="3.8499999999999996" transform="translate(0,111.0288188976378)" style="font-family: sans-serif; font-size: 11px; fill: rgb(0, 0, 0); fill-opacity: 1; white-space: pre;">120</text></g></g><g class="overaxes-above"/></g></g><g class="polarlayer"/><g class="ternarylayer"/><g class="geolayer"/><g class="funnelarealayer"/><g class="pielayer"/><g class="treemaplayer"/><g class="sunburstlayer"/><g class="glimages"/><defs id="topdefs-861daf"><g class="clips"/><clipPath id="legend861daf"><rect width="58" height="48" x="1" y="1"/></clipPath></defs><g class="layer-above"><g class="imagelayer"/><g class="shapelayer"/></g><g class="infolayer"><g class="legend" pointer-events="all" transform="translate(590,60)"><rect class="bg" shape-rendering="crispEdges" width="59" height="49" x="0.5" y="0.5" style="stroke: rgb(0, 0, 0); stroke-opacity: 1; fill: rgb(255, 255, 255); fill-opacity: 1; stroke-width: 1px;"/><g class="scrollbox" transform="" clip-path="url('#legend861daf')"><g class="groups"><g class="traces" transform="translate(1,15.5)" style="opacity: 1;"><text class="legendtext" text-anchor="start" x="40" y="4.29" style="font-family: sans-serif; font-size: 11px; fill: rgb(0, 0, 0); fill-opacity: 1; white-space: pre;">p1</text><g class="layers" style="opacity: 1;"><g class="legendfill"/><g class="legendlines"><path class="js-line" d="M5,0h30" style="fill: none; stroke: rgb(0, 154, 250); stroke-opacity: 1; stroke-width: 1px;"/></g><g class="legendsymbols"><g class="legendpoints"/></g></g><rect class="legendtoggle" x="0" y="-9.5" width="52.25" height="19" style="fill: rgb(0, 0, 0); fill-opacity: 0;"/></g><g class="traces" transform="translate(1,34.5)" style="opacity: 1;"><text class="legendtext" text-anchor="start" x="40" y="4.29" style="font-family: sans-serif; font-size: 11px; fill: rgb(0, 0, 0); fill-opacity: 1; white-space: pre;">p2</text><g class="layers" style="opacity: 1;"><g class="legendfill"/><g class="legendlines"><path class="js-line" d="M5,0h30" style="fill: none; stroke: rgb(227, 111, 71); stroke-opacity: 1; stroke-width: 1px;"/></g><g class="legendsymbols"><g class="legendpoints"/></g></g><rect class="legendtoggle" x="0" y="-9.5" width="52.25" height="19" style="fill: rgb(0, 0, 0); fill-opacity: 0;"/></g></g></g><rect class="scrollbar" rx="20" ry="3" width="0" height="0" x="0" y="0" style="fill: rgb(128, 139, 164); fill-opacity: 1;"/></g><g class="g-gtitle"/><g class="g-xtitle"><text class="xtitle" x="368.72519841269843" y="467.0625" text-anchor="middle" style="font-family: sans-serif; font-size: 15px; fill: rgb(0, 0, 0); opacity: 1; font-weight: normal; white-space: pre;">t [s]</text></g><g class="g-ytitle"><text class="ytitle" transform="rotate(-90,43.90625,244.27951388888889)" x="43.90625" y="244.27951388888889" text-anchor="middle" style="font-family: sans-serif; font-size: 15px; fill: rgb(0, 0, 0); opacity: 1; font-weight: normal; white-space: pre;">p [mmHg]</text></g></g></svg>