<svg class="main-svg" xmlns="http://www.w3.org/2000/svg" xmlns:xlink="http://www.w3.org/1999/xlink" width="700" height="500" style="" viewBox="0 0 700 500"><rect x="0" y="0" width="700" height="500" style="fill: rgb(255, 255, 255); fill-opacity: 1;"/><defs id="defs-17a972"><g class="clips"><clipPath id="clip17a972xyplot" class="plotclip"><rect width="543.388113417641" height="350.23055711786026"/></clipPath><clipPath class="axesclip" id="clip17a972x"><rect x="102.13801399825022" y="0" width="543.388113417641" height="500"/></clipPath><clipPath class="axesclip" id="clip17a972y"><rect x="0" y="64.5697412823397" width="700" height="350.23055711786026"/></clipPath><clipPath class="axesclip" id="clip17a972xy"><rect x="102.13801399825022" y="64.5697412823397" width="543.388113417641" height="350.23055711786026"/></clipPath></g><g class="gradients"/></defs><g class="bglayer"/><g class="layer-below"><g class="imagelayer"/><g class="shapelayer"/></g><g class="cartesianlayer"><g class="subplot xy"><g class="layer-subplot"><g class="shapelayer"/><g class="imagelayer"/></g><g class="gridlayer"><g class="x"><path class="xgrid crisp" transform="translate(237.9880139982502,0)" d="M0,64.5697412823397v350.23055711786026" style="stroke: rgb(0, 0, 0); stroke-opacity: 0.1; stroke-width: 0.5px;"/><path class="xgrid crisp" transform="translate(373.8280139982502,0)" d="M0,64.5697412823397v350.23055711786026" style="stroke: rgb(0, 0, 0); stroke-opacity: 0.1; stroke-width: 0.5px;"/><path class="xgrid crisp" transform="translate(509.6780139982502,0)" d="M0,64.5697412823397v350.23055711786026" style="stroke: rgb(0, 0, 0); stroke-opacity: 0.1; stroke-width: 0.5px;"/></g><g class="y"><path class="ygrid crisp" transform="translate(0,372.9597412823397)" d="M102.13801399825022,0h543.388113417641" style="stroke: rgb(0, 0, 0); stroke-opacity: 0.1; stroke-width: 0.5px;"/><path class="ygrid crisp" transform="translate(0,285.5797412823397)" d="M102.13801399825022,0h543.388113417641" style="stroke: rgb(0, 0, 0); stroke-opacity: 0.1; stroke-width: 0.5px;"/><path class="ygrid crisp" transform="translate(0,198.1997412823397)" d="M102.13801399825022,0h543.388113417641" style="stroke: rgb(0, 0, 0); stroke-opacity: 0.1; stroke-width: 0.5px;"/><path class="ygrid crisp" transform="translate(0,110.8197412823397)" d="M102.13801399825022,0h543.388113417641" style="stroke: rgb(0, 0, 0); stroke-opacity: 0.1; stroke-width: 0.5px;"/></g></g><g class="zerolinelayer"/><path class="xlines-below"/><path class="ylines-below"/><g class="overlines-below"/><g class="xaxislayer-below"/><g class="yaxislayer-below"/><g class="overaxes-below"/><g class="plot" transform="translate(102.13801399825022,64.5697412823397)" clip-path="url('#clip17a972xyplot')"><g class="scatterlayer mlayer"><g class="trace scatter trace33e87c" style="stroke-miterlimit: 2; opacity: 1;"><g class="fills"/><g class="errorbars"/><g class="lines"><path class="js-line" d="M0,340.32L7.54,331.73L7.65,331.58L16.88,317.77L16.99,317.58L27.23,298.47L27.34,298.24L36.46,278.34L36.57,278.08L51.54,240.86L51.65,240.56L105.44,94.56L105.55,94.28L117.25,67.52L117.36,67.28L130.87,41.68L130.98,41.49L137.96,30.92L138.07,30.76L145.83,21.4L145.95,21.29L151.69,16.11L151.8,16.02L157.87,12.24L157.99,12.19L163.28,10.37L163.39,10.35L168.56,9.94L168.68,9.94L174.75,11.21L174.87,11.25L181.17,14.59L181.28,14.67L187.81,20.31L187.92,20.43L193.66,27.21L193.77,27.36L201.42,39.02L201.53,39.21L208.29,51.93L208.4,52.16L217.85,73.61L217.96,73.89L224.38,90.74L224.49,91.05L234.73,118.94L234.84,119.03L287.84,159.13L287.95,159.22L377.52,224.58L377.64,224.66L416.91,252.3L417.02,252.37L481.84,296.56L481.95,296.63L522.01,323.04L522.12,323.11L543.39,336.85" style="vector-effect: non-scaling-stroke; fill: none; stroke: rgb(0, 154, 250); stroke-opacity: 1; stroke-width: 1px; opacity: 1;"/></g><g class="points"/><g class="text"/></g><g class="trace scatter trace593e7e" style="stroke-miterlimit: 2; opacity: 1;"><g class="fills"/><g class="errorbars"/><g class="lines"><path class="js-line" d="M0,309.76L6.53,313.41L6.64,313.46L12.83,314.94L12.94,314.94L18.34,314.68L18.45,314.66L23.97,312.94L24.08,312.89L29.82,309.58L29.93,309.5L36.01,304.39L36.12,304.28L43.89,295.46L44,295.32L54.13,280.32L54.24,280.13L62.9,264.53L63.01,264.31L70.67,248.71L70.78,248.47L86.08,213.35L86.19,213.08L94.41,192.75L94.52,192.47L116.91,135.53L117.03,135.25L132.78,97.19L132.89,96.93L153.49,54.69L153.6,54.5L161.81,41.11L161.92,40.94L173.97,25.79L174.08,25.68L181.5,19.28L181.62,19.2L188.37,15.5L188.48,15.45L195.23,13.86L195.35,13.85L200.63,14.12L200.75,14.14L206.37,15.92L206.49,15.97L213.12,20.08L213.24,20.17L220.21,26.83L220.33,26.96L228.32,37.51L228.43,37.68L235.74,48.27L235.85,48.38L266.91,77.86L267.02,77.97L277.04,87.29L277.15,87.4L343.09,146.71L343.2,146.8L443.35,230.26L443.47,230.35L472.5,253.14L472.61,253.22L491.74,267.91L491.85,267.99L521.56,290.29L521.67,290.37L543.39,306.29" style="vector-effect: non-scaling-stroke; fill: none; stroke: rgb(227, 111, 71); stroke-opacity: 1; stroke-width: 1px; opacity: 1;"/></g><g class="points"/><g class="text"/></g></g></g><g class="overplot"/><path class="xlines-above crisp" d="M101.13801399825022,415.30029840019995H645.5261274158912" style="fill: none; stroke-width: 1px; stroke: rgb(0, 0, 0); stroke-opacity: 1;"/><path class="ylines-above crisp" d="M101.63801399825022,64.5697412823397V414.80029840019995" style="fill: none; stroke-width: 1px; stroke: rgb(0, 0, 0); stroke-opacity: 1;"/><g class="overlines-above"/><g class="xaxislayer-above"><path class="xtick ticks crisp" d="M0,414.80029840019995v-5" transform="translate(237.9880139982502,0)" style="stroke: rgb(0, 0, 0); stroke-opacity: 1; stroke-width: 1px;"/><path class="xtick ticks crisp" d="M0,414.80029840019995v-5" transform="translate(373.8280139982502,0)" style="stroke: rgb(0, 0, 0); stroke-opacity: 1; stroke-width: 1px;"/><path class="xtick ticks crisp" d="M0,414.80029840019995v-5" transform="translate(509.6780139982502,0)" style="stroke: rgb(0, 0, 0); stroke-opacity: 1; stroke-width: 1px;"/><g class="xtick"><text text-anchor="middle" x="0" y="429.00029840019994" transform="translate(102.13801399825022,0)" style="font-family: sans-serif; font-size: 11px; fill: rgb(0, 0, 0); fill-opacity: 1; white-space: pre;">9.00</text></g><g class="xtick"><text text-anchor="middle" x="0" y="429.00029840019994" transform="translate(237.9880139982502,0)" style="font-family: sans-serif; font-size: 11px; fill: rgb(0, 0, 0); fill-opacity: 1; white-space: pre;">9.25</text></g><g class="xtick"><text text-anchor="middle" x="0" y="429.00029840019994" transform="translate(373.8280139982502,0)" style="font-family: sans-serif; font-size: 11px; fill: rgb(0, 0, 0); fill-opacity: 1; white-space: pre;">9.50</text></g><g class="xtick"><text text-anchor="middle" x="0" y="429.00029840019994" transform="translate(509.6780139982502,0)" style="font-family: sans-serif; font-size: 11px; fill: rgb(0, 0, 0); fill-opacity: 1; white-space: pre;">9.75</text></g><g class="xtick"><text text-anchor="middle" x="0" y="429.00029840019994" transform="translate(645.5280139982502,0)" style="font-family: sans-serif; font-size: 11px; fill: rgb(0, 0, 0); fill-opacity: 1; white-space: pre;">10.00</text></g></g><g class="yaxislayer-above"><path class="ytick ticks crisp" d="M102.13801399825022,0h5" transform="translate(0,372.9597412823397)" style="stroke: rgb(0, 0, 0); stroke-opacity: 1; stroke-width: 1px;"/><path class="ytick ticks crisp" d="M102.13801399825022,0h5" transform="translate(0,285.5797412823397)" style="stroke: rgb(0, 0, 0); stroke-opacity: 1; stroke-width: 1px;"/><path class="ytick ticks crisp" d="M102.13801399825022,0h5" transform="translate(0,198.1997412823397)" style="stroke: rgb(0, 0, 0); stroke-opacity: 1; stroke-width: 1px;"/><path class="ytick ticks crisp" d="M102.13801399825022,0h5" transform="translate(0,110.8197412823397)" style="stroke: rgb(0, 0, 0); stroke-opacity: 1; stroke-width: 1px;"/><g class="ytick"><text text-anchor="end" x="98.93801399825021" y="3.8499999999999996" transform="translate(0,372.9597412823397)" style="font-family: sans-serif; font-size: 11px; fill: rgb(0, 0, 0); fill-opacity: 1; white-space: pre;">90</text></g><g class="ytick"><text text-anchor="end" x="98.93801399825021" y="3.8499999999999996" transform="translate(0,285.5797412823397)" style="font-family: sans-serif; font-size: 11px; fill: rgb(0, 0, 0); fill-opacity: 1; white-space: pre;">100</text></g><g class="ytick"><text text-anchor="end" x="98.93801399825021" y="3.8499999999999996" transform="translate(0,198.1997412823397)" style="font-family: sans-serif; font-size: 11px; fill: rgb(0, 0, 0); fill-opacity: 1; white-space: pre;">110</text></g><g class="ytick"><text text-anchor="end" x="98.93801399825021" y="3.8499999999999996" transform="translate(0,110.8197412823397)" style="font-family: sans-serif; font-size: 11px; fill: rgb(0, 0, 0); fill-opacity: 1; white-space: pre;">120</text></g></g><g class="overaxes-above"/></g></g><g class="polarlayer"/><g class="ternarylayer"/><g class="geolayer"/><g class="funnelarealayer"/><g class="pielayer"/><g class="treemaplayer"/><g class="sunburstlayer"/><g class="glimages"/><defs id="topdefs-17a972"><g class="clips"/><clipPath id="legend17a972"><rect width="58" height="48" x="1" y="1"/></clipPath></defs><g class="layer-above"><g class="imagelayer"/><g class="shapelayer"/></g><g class="infolayer"><g class="legend" pointer-events="all" transform="translate(590,60)"><rect class="bg" shape-rendering="crispEdges" style="stroke: rgb(0, 0, 0); stroke-opacity: 1; fill: rgb(255, 255, 255); fill-opacity: 1; stroke-width: 1px;" width="59" height="49" x="0.5" y="0.5"/><g class="scrollbox" transform="" clip-path="url('#legend17a972')"><g class="groups"><g class="traces" transform="translate(1,15.5)" style="opacity: 1;"><text class="legendtext" text-anchor="start" x="40" y="4.29" style="font-family: sans-serif; font-size: 11px; fill: rgb(0, 0, 0); fill-opacity: 1; white-space: pre;">p1</text><g class="layers" style="opacity: 1;"><g class="legendfill"/><g class="legendlines"><path class="js-line" d="M5,0h30" style="fill: none; stroke: rgb(0, 154, 250); stroke-opacity: 1; stroke-width: 1px;"/></g><g class="legendsymbols"><g class="legendpoints"/></g></g><rect class="legendtoggle" x="0" y="-9.5" width="52.25" height="19" style="fill: rgb(0, 0, 0); fill-opacity: 0;"/></g><g class="traces" transform="translate(1,34.5)" style="opacity: 1;"><text class="legendtext" text-anchor="start" x="40" y="4.29" style="font-family: sans-serif; font-size: 11px; fill: rgb(0, 0, 0); fill-opacity: 1; white-space: pre;">p2</text><g class="layers" style="opacity: 1;"><g class="legendfill"/><g class="legendlines"><path class="js-line" d="M5,0h30" style="fill: none; stroke: rgb(227, 111, 71); stroke-opacity: 1; stroke-width: 1px;"/></g><g class="legendsymbols"><g class="legendpoints"/></g></g><rect class="legendtoggle" x="0" y="-9.5" width="52.25" height="19" style="fill: rgb(0, 0, 0); fill-opacity: 0;"/></g></g></g><rect class="scrollbar" rx="20" ry="3" width="0" height="0" style="fill: rgb(128, 139, 164); fill-opacity: 1;" x="0" y="0"/></g><g class="g-gtitle"/><g class="g-xtitle"><text class="xtitle" x="373.83207070707067" y="456.515625" text-anchor="middle" style="font-family: sans-serif; font-size: 15px; fill: rgb(0, 0, 0); opacity: 1; font-weight: normal; white-space: pre;">t [s]</text></g><g class="g-ytitle"><text class="ytitle" transform="rotate(-90,55.078125,239.68501984126982)" x="55.078125" y="239.68501984126982" text-anchor="middle" style="font-family: sans-serif; font-size: 15px; fill: rgb(0, 0, 0); opacity: 1; font-weight: normal; white-space: pre;">p [mm​<tspan style="font-size:70%" dy="0.3em">Hg</tspan><tspan dy="-0.21em">​</tspan>]</text></g></g></svg>